<svg xmlns="http://www.w3.org/2000/svg" viewBox="0 0 256 256" fill="none" stroke="currentColor" stroke-linecap="round" stroke-linejoin="round" stroke-width="12"><title>A doorway in ice with an observing eye.</title><rect x="56" y="56" width="28" height="28" rx="4" ry="4"/><rect x="94" y="56" width="28" height="28" rx="4" ry="4"/><rect x="132" y="56" width="28" height="28" rx="4" ry="4"/><rect x="170" y="56" width="28" height="28" rx="4" ry="4"/><rect x="56" y="94" width="28" height="28" rx="4" ry="4"/><rect x="94" y="94" width="28" height="28" rx="4" ry="4"/><rect x="132" y="94" width="28" height="28" rx="4" ry="4"/><rect x="170" y="94" width="28" height="28" rx="4" ry="4"/><rect x="56" y="132" width="28" height="28" rx="4" ry="4"/><rect x="94" y="132" width="28" height="28" rx="4" ry="4"/><rect x="140" y="126" width="28" height="28" rx="4" ry="4"/><rect x="170" y="132" width="28" height="28" rx="4" ry="4"/><rect x="56" y="170" width="28" height="28" rx="4" ry="4"/><rect x="94" y="170" width="28" height="28" rx="4" ry="4"/><rect x="132" y="170" width="28" height="28" rx="4" ry="4"/><rect x="170" y="170" width="28" height="28" rx="4" ry="4"/><circle cx="56.0" cy="56.0" r="4.8"/></svg>
